{"title":"Inland Empire - HDmux - H264 - ITA Ac3 ENG DTS - Multisub - Orga","uid":9143834,"size":7637810771,"categoryP":"video","categoryS":"hd___movies","magnet":"?xt=urn:btih:6f9f952c9aeedb9ce219633f68bfb668155fddd5&amp;dn=Inland+Empire+-+HDmux+-+H264+-+ITA+Ac3+ENG+DTS+-+Multisub+-+Orga&amp;tr=udp%3A%2F%2Ftracker.openbittorrent.com%3A80&amp;tr=udp%3A%2F%2Fopen.demonii.com%3A1337&amp;tr=udp%3A%2F%2Ftracker.coppersurfer.tk%3A6969&amp;tr=udp%3A%2F%2Fexodus.desync.com%3A6969","seeders":1,"leechers":1,"uploader":"OrgazmoITA","files":1,"time":1383558946,"description":"General\nUnique ID: 333053345907419874670849785491020588655 (0xFA8FBDBF07D6FC19A89E9D6BB888266F)\nComplete name: Inland.Empire.HDMux.720p.x264.ITA-AC3.ENG-DTS.Multisub.Orgazmo.mkv\nFormat: Matroska\nFormat version: Version 4 / Version 2\nFile size: 7.11 GiB\nDuration: 2h 59mn\nOverall bit rate: 5 666 Kbps\nEncoded date: UTC 2013-10-22 09:36:39\nWriting application: mkvmerge v6.2.0 ('Promised Land') built on Apr 28 2013 18:50:30\nWriting library: libebml v1.3.0 + libmatroska v1.4.0\n\nVideo\nID: 1\nFormat: AVC\nFormat/Info: Advanced Video Codec\nFormat profile: &lt;a class=&quot;__cf_email__&quot; href=&quot;/cdn-cgi/l/email-protection&quot; data-cfemail=&quot;7d35141a153d3149534c&quot;&gt;[email&amp;#160;protected]&lt;/a&gt;&lt;script cf-hash='f9e31' type=&quot;text/javascript&quot;&gt;\n/* &lt;![CDATA[ */!function(){try{var t=&quot;currentScript&quot;in document?document.currentScript:function(){for(var t=document.getElementsByTagName(&quot;script&quot;),e=t.length;e--;)if(t[e].getAttribute(&quot;cf-hash&quot;))return t[e]}();if(t&amp;&amp;t.previousSibling){var e,r,n,i,c=t.previousSibling,a=c.getAttribute(&quot;data-cfemail&quot;);if(a){for(e=&quot;&quot;,r=parseInt(a.substr(0,2),16),n=2;a.length-n;n+=2)i=parseInt(a.substr(n,2),16)^r,e+=String.fromCharCode(i);e=document.createTextNode(e),c.parentNode.replaceChild(e,c)}}}catch(u){}}();/* ]]&gt; */&lt;/script&gt;\nFormat settings, CABAC: Yes\nFormat settings, ReFrames: 5 frames\nCodec ID: V_MPEG4/ISO/AVC\nDuration: 2h 59mn\nBit rate: 4 447 Kbps\nWidth: 1 280 pixels\nHeight: 688 pixels\nDisplay aspect ratio: 1.85:1\nFrame rate mode: Constant\nFrame rate: 23.976 fps\nColor space: YUV\nChroma subsampling: 4:2:0\nBit depth: 8 bits\nScan type: Progressive\nBits/(Pixel*Frame): 0.211\nStream size: 5.45 GiB (77%)\nTitle: Inland Empire\nWriting library: x264 core 93 r1538 bd72d46\nEncoding settings: cabac=1 // deblock=1:0:0 / analyse=0x3:0x133 / me=umh / subme=8 / psy=1 / psy_rd=1.00:0.00 // me_range=16 / chroma_me=1 / trellis=1 / 8x8dct=1 / cqm=0 / deadzone=21,11 / fast_pskip=0 / chroma_qp_offset=-2 / threads=12 / sliced_threads=0 / nr=0 / decimate=1 / interlaced=0 / constrained_intra=0 / bframes=3 / b_pyramid=2 / b_adapt=1 / b_bias=0 / direct=1 / wpredb=1 / wpredp=2 / keyint=250 / keyint_min=25 / scenecut=40 / intra_refresh=0 / rc_lookahead=40 / rc=2pass / mbtree=1 / bitrate=4447 / ratetol=1.0 / qcomp=0.60 / qpmin=10 / qpmax=51 / qpstep=4 / cplxblur=20.0 / qblur=0.5 / ip_ratio=1.40 / aq=1:1.00\nLanguage: English\nDefault: Yes\nForced: No\n\nAudio #1\nID: 2\nFormat: AC-3\nFormat/Info: Audio Coding 3\nMode extension: CM (complete main)\nFormat settings, Endianness: Big\nCodec ID: A_AC3\nDuration: 2h 59mn\nBit rate mode: Constant\nBit rate: 448 Kbps\nChannel count: 6 channels\nChannel positions: Front: L C R, Side: L R, LFE\nSampling rate: 48.0 KHz\nBit depth: 16 bits\nCompression mode: Lossy\nStream size: 576 MiB (8%)\nTitle: Italiano\nLanguage: Italian\nDefault: Yes\nForced: No\n\nAudio #2\nID: 3\nFormat: DTS\nFormat/Info: Digital Theater Systems\nMode: 16\nFormat settings, Endianness: Big\nCodec ID: A_DTS\nDuration: 2h 59mn\nBit rate mode: Constant\nBit rate: 768 Kbps\nChannel count: 6 channels\nChannel positions: Front: L C R, Side: L R, LFE\nSampling rate: 48.0 KHz\nBit depth: 24 bits\nCompression mode: Lossy\nStream size: 987 MiB (14%)\nTitle: English\nLanguage: English\nDefault: No\nForced: No\n\nText #1\nID: 4\nFormat: UTF-8\nCodec ID: S_TEXT/UTF8\nCodec ID/Info: UTF-8 Plain Text\nTitle: Italiano (Dialoghi in Polacco)\nLanguage: Italian\nDefault: Yes\nForced: No\n\nText #2\nID: 5\nFormat: UTF-8\nCodec ID: S_TEXT/UTF8\nCodec ID/Info: UTF-8 Plain Text\nTitle: Italiano\nLanguage: Italian\nDefault: No\nForced: No\n\nText #3\nID: 6\nFormat: UTF-8\nCodec ID: S_TEXT/UTF8\nCodec ID/Info: UTF-8 Plain Text\nTitle: English (Polish Spoken)\nLanguage: English\nDefault: No\nForced: No\n\nText #4\nID: 7\nFormat: UTF-8\nCodec ID: S_TEXT/UTF8\nCodec ID/Info: UTF-8 Plain Text\nTitle: English\nLanguage: English\nDefault: No\nForced: No\n\nText #5\nID: 8\nFormat: UTF-8\nCodec ID: S_TEXT/UTF8\nCodec ID/Info: UTF-8 Plain Text\nTitle: Francais\nLanguage: French\nDefault: No\nForced: No\n\nText #6\nID: 9\nFormat: UTF-8\nCodec ID: S_TEXT/UTF8\nCodec ID/Info: UTF-8 Plain Text\nTitle: Espanol\nLanguage: Spanish\nDefault: No\nForced: No\n\nText #7\nID: 10\nFormat: UTF-8\nCodec ID: S_TEXT/UTF8\nCodec ID/Info: UTF-8 Plain Text\nTitle: Czech\nLanguage: Czech\nDefault: No\nForced: No\n\nText #8\nID: 11\nFormat: UTF-8\nCodec ID: S_TEXT/UTF8\nCodec ID/Info: UTF-8 Plain Text\nTitle: Portuguese\nLanguage: Portuguese\nDefault: No\nForced: No\n\nText #9\nID: 12\nFormat: UTF-8\nCodec ID: S_TEXT/UTF8\nCodec ID/Info: UTF-8 Plain Text\nTitle: Danish\nLanguage: Danish\nDefault: No\nForced: No","torrent":{"xt":"urn:btih:6f9f952c9aeedb9ce219633f68bfb668155fddd5","amp;dn":"Inland+Empire+-+HDmux+-+H264+-+ITA+Ac3+ENG+DTS+-+Multisub+-+Orga","amp;tr":["udp%3A%2F%2Ftracker.openbittorrent.com%3A80","udp%3A%2F%2Fopen.demonii.com%3A1337","udp%3A%2F%2Ftracker.coppersurfer.tk%3A6969","udp%3A%2F%2Fexodus.desync.com%3A6969"],"infoHash":"6f9f952c9aeedb9ce219633f68bfb668155fddd5","infoHashBuffer":{"type":"Buffer","data":[111,159,149,44,154,238,219,156,226,25,99,63,104,191,182,104,21,95,221,213]},"announce":[],"urlList":[]}}